HIERARCHY
ROOT Pelvis
{
	OFFSET 0.000000 0.000000 0.000000
	CHANNELS 6 Xposition Yposition Zposition Xrotation Yrotation Zrotation
	JOINT LeftUpLeg_virtual
	{
		OFFSET 0.000000 0.000000 0.000000
		CHANNELS 3 Xrotation Yrotation Zrotation
		JOINT LeftUpLeg
		{
			OFFSET 18.735201 -5.666702 -4.541200
			CHANNELS 3 Xrotation Yrotation Zrotation
			JOINT LeftLeg
			{
				OFFSET -0.021200 -31.938179 0.493100
				CHANNELS 3 Xrotation Yrotation Zrotation
				JOINT LeftFoot
				{
					OFFSET 0.021200 -31.938179 -4.336299
					CHANNELS 3 Xrotation Yrotation Zrotation
					JOINT LeftToeBase
					{
						OFFSET 0.943001 -26.722000 15.023500
						CHANNELS 3 Xrotation Yrotation Zrotation
						End Site
						{
							OFFSET 0 0 0
						}
					}
				}
			}
		}
	}
	JOINT RightUpLeg_virtual
	{
		OFFSET 0.000000 0.000000 0.000000
		CHANNELS 3 Xrotation Yrotation Zrotation
		JOINT RightUpLeg
		{
			OFFSET -18.735201 -5.666702 -4.541200
			CHANNELS 3 Xrotation Yrotation Zrotation
			JOINT RightLeg
			{
				OFFSET 0.018946 -31.938133 0.493100
				CHANNELS 3 Xrotation Yrotation Zrotation
				JOINT RightFoot
				{
					OFFSET -0.018946 -31.938126 -4.336299
					CHANNELS 3 Xrotation Yrotation Zrotation
					JOINT RightToeBase
					{
						OFFSET -0.943001 -26.722004 15.023500
						CHANNELS 3 Xrotation Yrotation Zrotation
						End Site
						{
							OFFSET 0 0 0
						}
					}
				}
			}
		}
	}
	JOINT Hips_virtual
	{
		OFFSET 0.000000 0.000000 0.000000
		CHANNELS 3 Xrotation Yrotation Zrotation
		JOINT Hips
		{
			OFFSET -0.000000 -0.000000 -0.000000
			CHANNELS 3 Xrotation Yrotation Zrotation
			JOINT Spine
			{
				OFFSET 0.000000 10.199997 -0.299500
				CHANNELS 3 Xrotation Yrotation Zrotation
				JOINT Spine1
				{
					OFFSET 0.000000 11.900002 -1.516600
					CHANNELS 3 Xrotation Yrotation Zrotation
					JOINT Spine2
					{
						OFFSET 0.000000 13.600006 -2.842500
						CHANNELS 3 Xrotation Yrotation Zrotation
						JOINT Neck_virtual
						{
							OFFSET 0.000000 0.000000 0.000000
							CHANNELS 3 Xrotation Yrotation Zrotation
							JOINT Neck
							{
								OFFSET 0.000000 9.624100 -2.890100
								CHANNELS 3 Xrotation Yrotation Zrotation
								JOINT Head
								{
									OFFSET 0.000000 14.068802 -1.351900
									CHANNELS 3 Xrotation Yrotation Zrotation
									End Site
									{
										OFFSET 0 0 0
									}
								}
							}
						}
						JOINT LeftShoulder_virtual
						{
							OFFSET 0.000000 0.000000 0.000000
							CHANNELS 3 Xrotation Yrotation Zrotation
							JOINT LeftShoulder
							{
								OFFSET 15.263000 10.923401 -0.547700
								CHANNELS 3 Xrotation Yrotation Zrotation
								JOINT LeftArm
								{
									OFFSET 25.438599 -2.830597 -13.032500
									CHANNELS 3 Xrotation Yrotation Zrotation
									JOINT LeftForeArm
									{
										OFFSET 29.960503 0.000000 0.000000
										CHANNELS 3 Xrotation Yrotation Zrotation
										JOINT LeftHand
										{
											OFFSET 27.849251 0.000000 0.000000
											CHANNELS 3 Xrotation Yrotation Zrotation
											End Site
											{
												OFFSET 0 0 0
											}
										}
									}
								}
							}
						}
						JOINT RightShoulder_virtual
						{
							OFFSET 0.000000 0.000000 0.000000
							CHANNELS 3 Xrotation Yrotation Zrotation
							JOINT RightShoulder
							{
								OFFSET -15.263000 10.923401 -0.547700
								CHANNELS 3 Xrotation Yrotation Zrotation
								JOINT RightArm
								{
									OFFSET -25.438599 -2.830597 -13.032500
									CHANNELS 3 Xrotation Yrotation Zrotation
									JOINT RightForeArm
									{
										OFFSET -29.960503 0.000000 0.000000
										CHANNELS 3 Xrotation Yrotation Zrotation
										JOINT RightHand
										{
											OFFSET -27.849251 0.000000 0.000000
											CHANNELS 3 Xrotation Yrotation Zrotation
											End Site
											{
												OFFSET 0 0 0
											}
										}
									}
								}
							}
						}
					}
				}
			}
		}
	}
}
MOTION
Frames: 12
Frame Time: 0.03333333
-10.351567 75.378845 15.524204 0.000000 0.000000 0.000000 4.391735 -78.697754 5.864717 -40.275976 46.536271 53.726958 75.056020 -14.335807 -0.994560 -36.806377 -11.935543 3.626574 0.000000 0.000000 0.000000 2.536431 -77.163256 3.904785 -44.189456 28.622849 -20.513175 40.779047 -8.197631 11.955544 -8.737601 7.725453 38.881330 0.000000 0.000000 0.000000 -0.034199 -74.578043 2.198875 -0.894291 -0.127046 -0.163464 11.248822 -13.450843 2.610934 2.870086 -12.385798 9.301976 0.000000 0.000000 0.000000 -2.461968 -7.977360 6.418278 -4.521447 -4.310085 1.190323 0.000000 0.000000 0.000000 2.805918 -10.363913 6.841052 -12.012225 -3.577679 4.966399 4.148442 -27.553803 6.798366 -32.860662 -42.741497 -22.502675 0.000000 0.000000 0.000000 -4.282521 -4.829826 7.966015 -7.254532 -22.611777 11.031488 -28.678899 6.064382 -8.860596 -16.779639 58.982720 16.233276 0.000000 0.000000 0.000000 
-10.817219 75.915649 17.039738 0.000000 0.000000 0.000000 -4.837742 -76.339385 -3.497895 -35.854528 47.739235 51.045286 72.129632 -11.588890 -1.685189 -43.736693 -10.067490 10.311864 0.000000 0.000000 0.000000 -5.770872 -75.006037 -4.630905 -40.729190 26.797300 -18.035782 47.392398 -7.812834 11.402105 -17.252332 4.224941 33.501108 0.000000 0.000000 0.000000 -5.684287 -72.410838 -3.897354 -0.907937 -0.066541 -0.218671 10.863339 -13.650181 5.596009 1.778195 -13.187943 8.226947 0.000000 0.000000 0.000000 -4.830773 -8.656980 5.320016 -4.090114 -5.080655 1.554107 0.000000 0.000000 0.000000 0.700411 -11.149790 5.377840 -13.192078 -5.682141 13.960636 1.760923 -35.664465 12.506314 -33.374056 -38.643458 -22.839746 0.000000 0.000000 0.000000 -6.109880 -5.184879 7.253465 -11.716276 -22.943683 10.025559 -29.569241 3.693538 -15.690203 -22.842683 61.010398 25.487602 0.000000 0.000000 0.000000 
-10.904494 76.147705 18.862726 0.000000 0.000000 0.000000 -8.708464 -72.733380 -7.645042 -29.494020 49.182720 47.212737 66.127815 -9.942571 -2.650748 -51.705973 -9.091911 10.197867 0.000000 0.000000 0.000000 -10.366979 -71.341176 -9.344132 -41.785772 27.708206 -14.189787 59.937382 -7.485637 10.179921 -22.238650 2.055067 23.641295 0.000000 0.000000 0.000000 -8.332003 -69.415943 -7.016568 -0.900209 0.007932 -0.234222 10.596218 -13.916709 8.210549 0.758337 -13.552858 6.690580 0.000000 0.000000 0.000000 -6.651069 -8.944548 3.951595 -3.177373 -5.984851 1.909650 0.000000 0.000000 0.000000 -1.867612 -11.546723 3.578579 -14.352584 -6.112953 23.814126 -4.963490 -41.935951 14.361548 -34.174551 -36.718892 -23.521302 0.000000 0.000000 0.000000 -8.070902 -5.218808 6.130765 -16.440547 -22.733486 8.769093 -31.267916 0.567935 -23.049996 -28.514081 63.983218 34.405015 0.000000 0.000000 0.000000 
-10.842480 76.308586 20.817270 0.000000 0.000000 0.000000 -8.835796 -68.002675 -8.114354 -22.118261 50.658786 42.652168 57.478139 -8.663607 -3.899957 -56.793095 -7.615826 6.713356 0.000000 0.000000 0.000000 -11.232346 -66.409800 -10.408359 -45.511989 29.911792 -9.974368 74.062296 -7.651949 8.663577 -23.283075 0.996168 11.381033 0.000000 0.000000 0.000000 -8.865928 -65.260825 -7.913628 -0.877652 0.061223 -0.187721 10.105991 -14.201430 9.796334 0.020930 -13.296850 4.734145 0.000000 0.000000 0.000000 -7.894993 -8.635603 2.336733 -2.047556 -7.070237 2.236153 0.000000 0.000000 0.000000 -4.529194 -11.340708 1.514948 -15.841377 -4.635534 33.961435 -16.237602 -46.273797 12.054364 -35.603314 -38.138274 -25.205051 0.000000 0.000000 0.000000 -9.719337 -4.722291 4.571233 -21.445467 -22.540060 6.210772 -33.983678 -3.004432 -29.758704 -34.291334 68.291523 43.138095 0.000000 0.000000 0.000000 
-10.822683 76.372070 22.714819 0.000000 0.000000 0.000000 -7.469170 -62.469661 -7.176284 -16.621035 51.473566 39.152195 49.163558 -6.344235 -5.200878 -56.729215 -5.315159 4.710971 0.000000 0.000000 0.000000 -9.867131 -60.380190 -9.369963 -50.356376 31.810722 -5.655929 85.679594 -7.178345 7.250446 -18.396438 1.023245 1.913129 0.000000 0.000000 0.000000 -8.369118 -60.205174 -7.714017 -0.873675 0.087170 -0.101273 9.081685 -14.496629 10.040463 -0.333452 -12.368466 2.398514 0.000000 0.000000 0.000000 -8.686418 -7.551603 0.517230 -0.953629 -8.365110 2.510197 0.000000 0.000000 0.000000 -6.540181 -10.408354 -0.719825 -17.741616 -1.712896 43.210328 -30.543045 -49.077054 5.581911 -36.928029 -42.320692 -27.509570 0.000000 0.000000 0.000000 -10.432154 -3.527180 2.549672 -26.546645 -22.253234 1.574994 -38.082273 -6.221230 -34.333227 -39.035631 73.479360 50.146924 0.000000 0.000000 0.000000 
-11.136353 76.387512 24.094906 0.000000 0.000000 0.000000 -5.819907 -56.062415 -6.169770 -15.755817 50.893389 38.538735 44.585802 -2.650563 -6.001455 -52.225453 -2.466137 5.971939 0.000000 0.000000 0.000000 -7.564985 -53.533308 -7.762641 -54.966149 30.929402 -1.905477 92.308880 -5.042991 6.313391 -5.435168 2.168262 -0.978072 0.000000 0.000000 0.000000 -7.372612 -54.170968 -7.162196 -0.853461 0.086423 -0.026187 7.757354 -14.633892 9.086152 -0.236418 -10.648508 -0.242089 0.000000 0.000000 0.000000 -9.097835 -5.670457 -1.514328 -0.090682 -9.864041 2.655243 0.000000 0.000000 0.000000 -7.520321 -8.699108 -2.974278 -19.905198 2.175265 50.848580 -45.604927 -50.909191 -4.654295 -36.968757 -48.135768 -29.519500 0.000000 0.000000 0.000000 -10.172523 -1.594196 0.131811 -31.476650 -21.479748 -5.092949 -43.622127 -7.656501 -35.366918 -35.685109 78.415011 47.965908 0.000000 0.000000 0.000000 
-11.858887 76.541985 25.184858 0.000000 0.000000 0.000000 -4.047654 -48.727929 -5.513586 -20.040755 47.933844 40.826086 45.285285 1.080450 -6.162322 -45.509530 0.528834 9.225306 0.000000 0.000000 0.000000 -5.196834 -46.137815 -6.689620 -58.782725 25.560132 0.341523 93.940503 -1.196308 6.479209 12.486431 5.461578 1.575164 0.000000 0.000000 0.000000 -6.011233 -46.930817 -6.754944 -0.820396 0.038629 0.014443 6.375159 -14.382259 7.488031 0.349061 -8.100551 -2.999653 0.000000 0.000000 0.000000 -9.151091 -3.090687 -3.697475 0.453983 -11.525279 2.583039 0.000000 0.000000 0.000000 -7.322565 -6.291998 -5.089945 -21.950357 6.551268 56.299672 -60.225145 -51.775006 -18.215563 -33.792709 -54.261318 -29.390441 0.000000 0.000000 0.000000 -8.944806 0.992219 -2.498767 -35.834970 -19.757432 -12.816643 -50.123272 -6.759110 -33.160206 -9.291846 81.873389 21.519592 0.000000 0.000000 0.000000 
-13.054323 77.072296 25.895355 0.000000 0.000000 0.000000 -2.146116 -40.455627 -5.416199 -28.046387 41.581440 44.480135 51.078743 3.871013 -6.232490 -40.077597 2.787507 12.290194 0.000000 0.000000 0.000000 -2.980536 -38.036241 -6.327617 -62.430361 16.230891 1.372298 92.530191 3.336460 7.960713 29.732978 10.518547 5.440126 0.000000 0.000000 0.000000 -4.341220 -38.919456 -6.701040 -0.757881 0.010770 0.012754 5.453139 -13.796712 5.813428 1.366748 -4.972868 -5.651912 0.000000 0.000000 0.000000 -8.774187 -0.077210 -5.800952 0.727446 -13.266692 2.207148 0.000000 0.000000 0.000000 -6.202873 -3.336496 -6.827655 -23.568562 11.121470 59.457685 -72.420885 -50.847418 -32.077014 -25.626194 -59.968173 -25.044868 0.000000 0.000000 0.000000 -6.876683 3.888590 -5.166180 -39.130379 -17.261145 -20.266257 -56.982687 -4.426852 -29.194674 33.252202 80.754283 -22.405046 0.000000 0.000000 0.000000 
-14.645694 78.128983 26.319345 0.000000 0.000000 0.000000 0.104531 -31.317131 -5.827147 -36.856606 31.387506 46.792530 58.681878 5.144142 -6.175595 -37.446823 2.938946 12.876400 0.000000 0.000000 0.000000 -0.747194 -29.156653 -6.649417 -65.623317 4.468149 1.537779 89.324189 6.521521 10.689096 39.331245 13.636634 7.298483 0.000000 0.000000 0.000000 -2.128064 -30.164127 -7.014578 -0.686409 0.026140 -0.008392 5.365481 -13.092727 4.541895 2.893201 -1.658525 -7.920556 0.000000 0.000000 0.000000 -7.818958 2.918221 -7.582812 0.837381 -15.025279 1.505625 0.000000 0.000000 0.000000 -4.643428 -0.242415 -7.960107 -24.445262 15.623593 60.369529 -79.646672 -48.346722 -42.491905 -11.985053 -64.662296 -15.358474 0.000000 0.000000 0.000000 -4.345207 6.669253 -7.585017 -41.081856 -14.475104 -26.433812 -63.110579 -1.199318 -24.869228 54.698771 76.341366 -46.532132 0.000000 0.000000 0.000000 
-16.372288 79.551918 26.461870 0.000000 0.000000 0.000000 2.851990 -21.546475 -6.710710 -44.956886 18.240266 46.519332 65.075618 5.147842 -5.753178 -35.706129 1.246106 11.266096 0.000000 0.000000 0.000000 1.554481 -19.804651 -7.550870 -68.845076 -6.692820 0.702606 86.614032 7.374845 13.643661 38.639043 12.500077 6.846490 0.000000 0.000000 0.000000 0.631514 -20.935650 -7.735174 -0.657972 0.037380 -0.023837 6.161938 -12.599672 3.919189 4.780703 1.344168 -9.505732 0.000000 0.000000 0.000000 -6.323579 5.471392 -8.772911 0.895642 -16.730272 0.539407 0.000000 0.000000 0.000000 -2.896126 2.555614 -8.358618 -24.249466 19.817488 58.758307 -81.279436 -45.053512 -47.553498 6.168851 -67.201821 -0.792619 0.000000 0.000000 0.000000 -1.561332 8.946445 -9.397154 -41.628084 -11.958540 -30.896975 -66.900603 2.200591 -21.057676 62.470454 72.105426 -58.091558 0.000000 0.000000 0.000000 
-18.171696 80.854630 26.465015 0.000000 0.000000 0.000000 5.961696 -11.701900 -8.129981 -52.461163 4.444974 44.084565 68.804553 5.033493 -5.274803 -31.799803 -0.859840 9.767266 0.000000 0.000000 0.000000 4.124685 -10.386284 -8.835090 -72.984260 -14.030062 -0.945755 85.635471 6.767823 15.363665 29.999209 8.360047 3.839849 0.000000 0.000000 0.000000 3.870178 -11.645163 -8.881895 -0.652357 0.022935 -0.029439 7.773957 -12.454099 4.035196 6.783664 3.720387 -10.140341 0.000000 0.000000 0.000000 -4.491368 7.194034 -9.131378 0.994435 -18.323352 -0.583019 0.000000 0.000000 0.000000 -1.128683 4.652696 -7.894851 -22.605098 23.444686 54.352279 -77.977695 -42.167074 -48.094395 22.891965 -67.293558 13.168849 0.000000 0.000000 0.000000 1.187928 10.421885 -10.237023 -40.670450 -9.715516 -33.557501 -68.257939 5.674610 -16.627974 60.544402 68.718151 -60.851016 0.000000 0.000000 0.000000 
-19.818687 81.541107 26.571821 0.000000 0.000000 0.000000 9.512083 -2.570614 -10.024550 -59.758233 -7.824966 39.968027 69.564234 5.423857 -4.926291 -24.267322 -2.409793 9.794225 0.000000 0.000000 0.000000 7.168557 -1.629166 -10.529384 -78.551369 -16.479827 -4.085438 86.037263 5.913802 15.680861 16.351065 4.110658 -1.562925 0.000000 0.000000 0.000000 7.624486 -2.738748 -10.513845 -0.666144 -0.027944 0.014322 9.832491 -12.581171 4.726650 8.706040 5.296150 -9.738743 0.000000 0.000000 0.000000 -2.658670 8.007082 -8.519441 1.165643 -19.773751 -1.675389 0.000000 0.000000 0.000000 0.609412 5.765590 -6.652360 -19.287396 26.178279 47.016779 -70.998177 -39.732583 -46.115091 32.130753 -65.144685 20.567071 0.000000 0.000000 0.000000 3.787217 11.122931 -9.983472 -38.259759 -7.618367 -34.274118 -67.666206 9.845227 -10.423003 48.381088 65.128203 -54.124383 0.000000 0.000000 0.000000 
